# xmcd CD database file
#
# Track frame offsets:
#	150
#	20140
#	40475
#
# Disc length: 804 seconds
#
# Revision: 2
# Processed by: cddbd v1.5.1PL0 Copyright (c) Steve Scherf et al.
# Submitted via: CDex 1.51
#
DISCID=23032203
DTITLE=TOKIO - MAGIC CHANNEL
DYEAR=1900
DGENRE=JPop
TTITLE0=MAGIC CHANNEL
TTITLE1=じっと見つめて
TTITLE2=MAGIC CHANNEL（オリジナルカラオケ）
EXTD=
EXTT0=
EXTT1=
EXTT2=
PLAYORDER=
